,
Brought to you by  http://www.scenetime.com/signup.php
 
 Hottest scene tracker on the net !!!   
 
No fake torrents from scenebalance 
shame on those who comment fake before downloading my torrents

    seed back for speed


 



...................................NFO:.................................................The population of Detroit has almost completely disappeared, but a few remain. As daylight disappears they realize that the Dark is coming for them...
 
http://www.imdb.com/title/tt1452628/

Subs: Dutch, English.

Door een mysterieuze en globale zonsverduistering verdwijnen ontelbare bevolkingsgroepen van de aardbodem waarbij alleen hun kleding en bezittingen achterblijven. Een handjevol overlevenden, een verslaggever (Hayden Christensen), een fysiotherapeut (Thandie Newton) en een filmoperateur(John Leguizamo), zitten gezamenlijk in een zwak verlichte bar op 7th Street. Ze moeten de handen inn slaan in een poging de strijd aan te gaan tegen de apocalyptische verschrikkingen. Als de duisternis langzaam intreedt realiseren ze zich dat ze misschien wel de laatste mensen op aarde zijn...
 
http://www.moviemeter.nl/film/65458

Subs: Engels, Nederlands.

General
Complete name                    : Vanishing On 7th Street-AC3-XviD-BRRip 2010.avi
Format                           : AVI
Format/Info                      : Audio Video Interleave
File size                        : 1.28 GiB
Duration                         : 1h 31mn
Overall bit rate                 : 2 006 Kbps
Writing application              : VirtualDubMod 1.5.4.1 (build 2178/release)
Writing library                  : VirtualDubMod build 2178/release
Source                           : Vanishing.On.7th.Street.2011.BluRay.720p.DTS.x264-CHD

Video
ID                               : 0
Format                           : MPEG-4 Visual
Format profile                   : Simple@L3
Format settings, BVOP            : No
Format settings, QPel            : No
Format settings, GMC             : No warppoints
Format settings, Matrix          : Default (H.263)
Codec ID                         : XVID
Codec ID/Hint                    : XviD
Duration                         : 1h 31mn
Bit rate                         : 1 548 Kbps
Width                            : 720 pixels
Height                           : 304 pixels
Display aspect ratio             : 2.35:1
Frame rate                       : 23.976 fps
Resolution                       : 8 bits
Colorimetry                      : 4:2:0
Scan type                        : Progressive
Bits/(Pixel*Frame)               : 0.295
Stream size                      : 1 010 MiB (77%)
Writing library                  : XviD 1.1.2 (UTC 2006-11-01)

Audio
ID                               : 1
Format                           : AC-3
Format/Info                      : Audio Coding 3
Codec ID                         : 2000
Duration                         : 1h 31mn
Bit rate mode                    : Constant
Bit rate                         : 448 Kbps
Channel(s)                       : 6 channels
Channel positions                : Front: L C R, Surround: L R, LFE
Sampling rate                    : 48.0 KHz
Stream size                      : 292 MiB (22%)
Alignment                        : Split accross interleaves
Interleave, duration             : 42 ms (1.00 video frame)
Interleave, preload duration     : 500 ms

Enjoy..

TBS.

Thanks to Simply ReleaseS Toppers